<?xml version="1.0" encoding="UTF-8"?>
<svg width="399px" height="103px" viewBox="0 0 399 103" version="1.1" xmlns="http://www.w3.org/2000/svg" xmlns:xlink="http://www.w3.org/1999/xlink">
    <!-- Generator: Sketch 55.1 (78136) - https://sketchapp.com -->
    <title>bbva-tagline-right-white</title>
    <desc>Created with Sketch.</desc>
    <g id="bbva-tagline-right-white" stroke="none" stroke-width="1" fill="none" fill-rule="evenodd">
        <g id="BBVA_TAGLINE_ENG_WHITE" fill="#FFFFFE">
            <path d="M160.37,9.087 C160.562,8.722 160.94,8.494 161.352,8.494 L170.63,8.494 C171.259,8.494 171.66,9.165 171.363,9.719 L141.193,66.185 C140.775,66.965 139.655,66.965 139.237,66.185 L109.068,9.719 C108.771,9.164 109.173,8.494 109.802,8.494 L119.064,8.494 C119.475,8.494 119.853,8.721 120.045,9.086 L139.21,45.539 C139.626,46.328 140.806,46.328 141.222,45.539 L160.37,9.087 Z M171.241,57.729 C171.049,58.093 170.671,58.32 170.259,58.32 L160.982,58.32 C160.353,58.32 159.951,57.65 160.248,57.096 L190.418,0.631 C190.837,-0.15 191.956,-0.15 192.374,0.631 L222.543,57.097 C222.84,57.651 222.438,58.321 221.809,58.321 L212.548,58.321 C212.136,58.321 211.758,58.094 211.566,57.73 L192.401,21.276 C191.985,20.487 190.806,20.487 190.39,21.277 L171.241,57.729 Z M86.886,58.32 C95.193,58.32 98.788,55.989 98.788,49.472 C98.788,42.956 95.114,40.623 86.886,40.623 L69.621,40.623 C69.009,40.623 68.512,41.12 68.512,41.732 L68.513,57.212 C68.513,57.824 69.009,58.321 69.622,58.321 L86.886,58.32 Z M69.633,16.92 C69.02,16.92 68.523,17.417 68.523,18.03 L68.523,31.072 C68.523,31.686 69.02,32.183 69.633,32.183 L86.656,32.182 C92.943,32.182 96.126,29.52 96.126,24.551 C96.126,19.605 92.931,16.92 86.656,16.92 L69.633,16.92 Z M99.27,35.384 C99.27,35.384 108.418,37.99 108.418,49.287 C108.418,60.859 101.175,66.77 87.439,66.77 L59.993,66.77 C59.38,66.77 58.884,66.274 58.884,65.659 L58.884,9.603 C58.884,8.99 59.38,8.494 59.993,8.494 L88.697,8.494 C98.687,8.494 105.764,14.654 105.764,23.729 C105.764,29.057 103.266,33.386 99.27,35.384 Z M28.002,58.32 C36.31,58.32 39.905,55.989 39.905,49.472 C39.905,42.956 36.23,40.623 28.002,40.623 L10.738,40.623 C10.125,40.623 9.629,41.12 9.629,41.732 L9.629,57.212 C9.629,57.824 10.126,58.321 10.739,58.321 L28.002,58.32 Z M10.749,16.92 C10.137,16.92 9.64,17.417 9.64,18.03 L9.64,31.072 C9.64,31.686 10.137,32.183 10.749,32.183 L27.772,32.182 C34.059,32.182 37.243,29.52 37.243,24.551 C37.243,19.605 34.047,16.92 27.772,16.92 L10.749,16.92 Z M40.387,35.384 C40.387,35.384 49.534,37.99 49.534,49.287 C49.534,60.859 42.291,66.77 28.555,66.77 L1.11,66.77 C0.497,66.77 5.32907052e-14,66.274 5.32907052e-14,65.659 L5.32907052e-14,9.603 C5.32907052e-14,8.99 0.497,8.494 1.11,8.494 L29.814,8.494 C39.804,8.494 46.881,14.654 46.881,23.729 C46.881,29.057 44.383,33.386 40.387,35.384 Z" id="BBVA"></path>
            <path d="M152.39,89.826 C152.39,84.316 155.541,81.164 159.668,81.164 C162.843,81.164 164.815,82.547 165.972,85.041 L163.568,86.47 C162.911,84.905 161.686,83.772 159.668,83.772 C156.811,83.772 155.224,86.13 155.224,89.803 C155.224,93.681 156.902,96.039 159.827,96.039 C161.913,96.039 163.273,94.792 163.931,92.909 L166.38,94.021 C165.382,96.787 163.341,98.578 159.827,98.578 C155.496,98.578 152.39,95.494 152.39,89.826 Z M168.688,98.261 L168.688,86.243 L171.25,86.243 L171.477,88.194 L171.499,88.194 C172.224,87.06 173.495,85.994 175.739,85.994 L175.852,85.994 L176.102,88.556 C175.921,88.511 175.558,88.511 175.377,88.511 C173.54,88.511 172.248,89.35 171.477,90.643 L171.477,98.261 L168.688,98.261 Z M184.943,91.096 C184.807,89.327 183.878,88.262 182.2,88.262 C180.817,88.262 179.57,89.168 179.298,91.096 L184.943,91.096 Z M176.486,92.252 C176.486,87.74 179.728,85.994 182.223,85.994 C184.83,85.994 187.506,87.604 187.506,92.501 L187.506,93.159 L179.275,93.159 C179.366,95.268 180.726,96.288 182.54,96.288 C184.037,96.288 185.329,95.653 186.259,94.746 L187.37,96.583 C186.01,97.875 184.445,98.51 182.382,98.51 C179.275,98.51 176.486,96.674 176.486,92.252 Z M196.596,94.905 L196.596,92.252 C192.718,92.796 191.471,93.635 191.471,94.837 C191.471,95.789 192.129,96.288 193.172,96.288 C194.599,96.288 195.733,95.767 196.596,94.905 Z M188.75,95.29 C188.75,92.638 190.972,91.005 196.596,90.37 L196.596,90.007 C196.596,88.897 195.937,88.284 194.509,88.284 C192.944,88.284 191.743,88.964 190.632,89.894 L189.112,88.194 C190.383,87.014 192.105,85.994 194.872,85.994 C197.978,85.994 199.316,87.536 199.316,90.348 L199.316,98.261 L196.822,98.261 L196.596,96.719 C195.438,97.899 193.965,98.443 192.174,98.443 C190.201,98.443 188.75,97.263 188.75,95.29 Z M202.963,94.95 L202.963,88.443 L200.922,88.443 L200.922,86.243 L202.963,86.243 L202.963,82.23 L205.729,81.821 L205.729,86.243 L208.836,86.243 L208.836,88.443 L205.729,88.443 L205.729,94.52 C205.729,95.812 206.273,96.22 207.407,96.22 C207.86,96.22 208.292,96.129 208.632,96.039 L208.858,98.238 C208.518,98.306 207.407,98.42 206.659,98.42 C204.119,98.42 202.963,97.558 202.963,94.95 Z M211.01,98.261 L211.01,86.243 L213.776,86.243 L213.776,98.261 L211.01,98.261 Z M210.783,82.979 C210.783,82.139 211.349,81.504 212.37,81.504 C213.414,81.504 214.003,82.139 214.003,82.979 C214.003,83.818 213.414,84.452 212.37,84.452 C211.349,84.452 210.783,83.818 210.783,82.979 Z M216.767,98.261 L216.767,86.243 L219.33,86.243 L219.557,87.944 C220.441,86.946 221.892,85.994 223.888,85.994 C226.064,85.994 227.425,87.128 227.425,89.509 L227.425,98.261 L224.658,98.261 L224.658,90.324 C224.658,88.987 224.114,88.307 222.821,88.307 C221.62,88.307 220.599,88.919 219.557,89.871 L219.557,98.261 L216.767,98.261 Z M237.194,90.393 C237.194,88.897 236.333,88.08 234.745,88.08 C233.203,88.08 232.297,88.919 232.297,90.393 C232.297,91.866 233.226,92.66 234.768,92.66 C236.287,92.66 237.194,91.866 237.194,90.393 Z M238.441,99.508 C238.441,98.647 237.829,98.329 235.38,98.17 L233.294,98.034 C233.045,98.034 232.818,98.012 232.568,97.966 C231.775,98.329 231.458,98.896 231.458,99.508 C231.458,100.573 232.682,100.914 235.131,100.914 C237.172,100.914 238.441,100.369 238.441,99.508 Z M228.895,99.985 C228.895,98.782 229.643,97.921 230.868,97.444 C230.256,97.127 229.938,96.628 229.938,95.971 C229.938,95.064 230.664,94.316 231.571,93.772 C230.347,93 229.666,91.776 229.666,90.302 C229.666,87.83 231.571,85.994 234.723,85.994 C236.378,85.994 237.602,86.538 238.419,87.264 C239.144,86.674 240.232,86.175 241.162,86.085 L241.525,88.329 C240.958,88.329 240.141,88.398 239.303,88.669 C239.575,89.101 239.733,89.667 239.733,90.302 C239.733,92.819 237.851,94.588 234.723,94.588 C234.042,94.588 233.635,94.497 233.045,94.338 C232.682,94.542 232.432,94.792 232.432,95.11 C232.432,95.585 232.75,95.744 233.815,95.835 L235.947,95.971 C239.507,96.197 240.913,97.15 240.913,99.259 C240.913,101.73 238.419,102.932 234.7,102.932 C230.551,102.932 228.895,101.73 228.895,99.985 Z M260.634,89.871 C260.634,86.062 258.729,83.772 255.895,83.772 C253.06,83.772 251.156,86.062 251.156,89.871 C251.156,93.681 253.06,96.039 255.895,96.039 C258.729,96.039 260.634,93.681 260.634,89.871 Z M248.321,89.871 C248.321,84.226 251.836,81.164 255.895,81.164 C259.931,81.164 263.445,84.226 263.445,89.871 C263.445,95.518 259.931,98.578 255.895,98.578 C251.836,98.578 248.321,95.518 248.321,89.871 Z M274.212,92.252 C274.212,89.758 273.124,88.375 271.332,88.375 C270.176,88.375 269.246,89.01 268.407,89.871 L268.407,94.792 C269.382,95.744 270.222,96.243 271.378,96.243 C273.1,96.243 274.212,95.041 274.212,92.252 Z M265.618,103 L265.618,86.243 L268.181,86.243 L268.407,87.808 C269.224,86.811 270.448,85.994 272.239,85.994 C274.982,85.994 277.001,88.058 277.001,92.23 C277.001,96.402 274.96,98.443 272.194,98.443 C270.561,98.443 269.314,97.944 268.407,96.945 L268.407,102.592 L265.618,103 Z M287.79,92.252 C287.79,89.758 286.702,88.375 284.91,88.375 C283.754,88.375 282.824,89.01 281.985,89.871 L281.985,94.792 C282.96,95.744 283.8,96.243 284.956,96.243 C286.679,96.243 287.79,95.041 287.79,92.252 Z M279.196,103 L279.196,86.243 L281.759,86.243 L281.985,87.808 C282.802,86.811 284.026,85.994 285.817,85.994 C288.56,85.994 290.579,88.058 290.579,92.23 C290.579,96.402 288.538,98.443 285.772,98.443 C284.14,98.443 282.892,97.944 281.985,96.945 L281.985,102.592 L279.196,103 Z M301.051,92.275 C301.051,90.053 300.076,88.375 297.967,88.375 C295.949,88.375 294.883,89.894 294.883,92.275 C294.883,94.565 295.812,96.175 297.967,96.175 C299.985,96.175 301.051,94.565 301.051,92.275 Z M292.095,92.252 C292.095,87.83 295.019,85.994 297.967,85.994 C300.891,85.994 303.817,87.83 303.817,92.252 C303.817,96.651 300.891,98.51 297.967,98.51 C295.042,98.51 292.095,96.651 292.095,92.252 Z M306.013,98.261 L306.013,86.243 L308.575,86.243 L308.802,88.194 L308.824,88.194 C309.55,87.06 310.819,85.994 313.064,85.994 L313.178,85.994 L313.428,88.556 C313.246,88.511 312.883,88.511 312.702,88.511 C310.865,88.511 309.572,89.35 308.802,90.643 L308.802,98.261 L306.013,98.261 Z M315.965,94.95 L315.965,88.443 L313.924,88.443 L313.924,86.243 L315.965,86.243 L315.965,82.23 L318.731,81.821 L318.731,86.243 L321.837,86.243 L321.837,88.443 L318.731,88.443 L318.731,94.52 C318.731,95.812 319.275,96.22 320.409,96.22 C320.862,96.22 321.293,96.129 321.634,96.039 L321.86,98.238 C321.519,98.306 320.409,98.42 319.661,98.42 C317.121,98.42 315.965,97.558 315.965,94.95 Z M323.762,94.996 L323.762,86.243 L326.551,86.243 L326.551,94.247 C326.551,95.518 327.072,96.153 328.364,96.153 C329.566,96.153 330.587,95.518 331.63,94.565 L331.63,86.243 L334.419,86.243 L334.419,98.261 L331.856,98.261 L331.63,96.583 C330.745,97.535 329.294,98.51 327.321,98.51 C325.122,98.51 323.762,97.376 323.762,94.996 Z M337.272,98.261 L337.272,86.243 L339.835,86.243 L340.061,87.944 C340.946,86.946 342.397,85.994 344.392,85.994 C346.569,85.994 347.93,87.128 347.93,89.509 L347.93,98.261 L345.163,98.261 L345.163,90.324 C345.163,88.987 344.619,88.307 343.327,88.307 C342.125,88.307 341.104,88.919 340.061,89.871 L340.061,98.261 L337.272,98.261 Z M350.805,98.261 L350.805,86.243 L353.571,86.243 L353.571,98.261 L350.805,98.261 Z M350.578,82.979 C350.578,82.139 351.145,81.504 352.166,81.504 C353.209,81.504 353.798,82.139 353.798,82.979 C353.798,83.818 353.209,84.452 352.166,84.452 C351.145,84.452 350.578,83.818 350.578,82.979 Z M357.47,94.95 L357.47,88.443 L355.429,88.443 L355.429,86.243 L357.47,86.243 L357.47,82.23 L360.236,81.821 L360.236,86.243 L363.343,86.243 L363.343,88.443 L360.236,88.443 L360.236,94.52 C360.236,95.812 360.78,96.22 361.914,96.22 C362.367,96.22 362.798,96.129 363.139,96.039 L363.365,98.238 C363.024,98.306 361.914,98.42 361.165,98.42 C358.626,98.42 357.47,97.558 357.47,94.95 Z M365.516,98.261 L365.516,86.243 L368.283,86.243 L368.283,98.261 L365.516,98.261 Z M365.29,82.979 C365.29,82.139 365.857,81.504 366.878,81.504 C367.921,81.504 368.51,82.139 368.51,82.979 C368.51,83.818 367.921,84.452 366.878,84.452 C365.857,84.452 365.29,83.818 365.29,82.979 Z M379.052,91.096 C378.916,89.327 377.986,88.262 376.308,88.262 C374.925,88.262 373.678,89.168 373.406,91.096 L379.052,91.096 Z M370.595,92.252 C370.595,87.74 373.837,85.994 376.331,85.994 C378.938,85.994 381.614,87.604 381.614,92.501 L381.614,93.159 L373.383,93.159 C373.474,95.268 374.834,96.288 376.648,96.288 C378.144,96.288 379.437,95.653 380.367,94.746 L381.478,96.583 C380.117,97.875 378.553,98.51 376.489,98.51 C373.383,98.51 370.595,96.674 370.595,92.252 Z M382.744,96.606 L383.809,94.724 C384.898,95.653 386.394,96.357 387.96,96.357 C389.456,96.357 390.363,95.88 390.363,95.041 C390.363,94.067 389.66,93.726 387.665,93.318 C385.125,92.796 383.175,92.116 383.175,89.531 C383.175,87.4 384.943,85.994 387.597,85.994 C389.751,85.994 391.202,86.607 392.472,87.513 L391.497,89.486 C390.363,88.669 389.093,88.194 387.801,88.194 C386.44,88.194 385.783,88.693 385.783,89.418 C385.783,90.211 386.44,90.574 388.231,90.96 C390.93,91.504 392.993,92.139 392.993,94.678 C392.993,97.309 390.703,98.487 387.936,98.487 C385.624,98.487 383.9,97.626 382.744,96.606 Z" id="CreatingOpportunities"></path>
        </g>
    </g>
</svg>